# xmcd
#
# Track frame offsets: 
#        150
#        15014
#        33320
#        51929
#        68909
#        85924
#        102399
#        120163
#        137597
#        152112
#
# Disc length: 2259 seconds
#
# Revision: 0
# Processed by: cddbd v1.5.2PL0 Copyright (c) Steve Scherf et al.
# Submitted via: ExactAudioCopy v0.95b4
#
DISCID=7208d10a
DTITLE=แมงปอ ชลธิชา - แมงปอ ล้อรัก
DYEAR=2007
DGENRE=Comedy
TTITLE0=แมงปอ ล้อรัก
TTITLE1=สาวใต้ใจดี
TTITLE2=จามทำไม
TTITLE3=สาวลูกทุ่ง
TTITLE4=ได้ข่าวว่าแฟนทิ้ง
TTITLE5=อกหักมารักกับไก่
TTITLE6=สาวไทยร้อยเปอร์เซ็นต์
TTITLE7=บอกใครไม่ได้
TTITLE8=น้อยๆหน่อย
TTITLE9=แม่บ้านยุคใหม่
EXTD=
EXTT0=
EXTT1=
EXTT2=
EXTT3=
EXTT4=
EXTT5=
EXTT6=
EXTT7=
EXTT8=
EXTT9=
PLAYORDER=
